<?xml version="1.0" encoding="UTF-8" standalone="no"?>
<!-- Created with Inkscape (http://www.inkscape.org/) -->

<svg
   xmlns:dc="http://purl.org/dc/elements/1.1/"
   xmlns:cc="http://creativecommons.org/ns#"
   xmlns:rdf="http://www.w3.org/1999/02/22-rdf-syntax-ns#"
   xmlns:svg="http://www.w3.org/2000/svg"
   xmlns="http://www.w3.org/2000/svg"
   xmlns:sodipodi="http://sodipodi.sourceforge.net/DTD/sodipodi-0.dtd"
   xmlns:inkscape="http://www.inkscape.org/namespaces/inkscape"
   id="svg2"
   version="1.1"
   inkscape:version="0.48.3.1 r9886"
   width="858.95209"
   height="675.04584"
   xml:space="preserve"
   sodipodi:docname="novena_mb_spacer.pdf"><metadata
     id="metadata8"><rdf:RDF><cc:Work
         rdf:about=""><dc:format>image/svg+xml</dc:format><dc:type
           rdf:resource="http://purl.org/dc/dcmitype/StillImage" /><dc:title></dc:title></cc:Work></rdf:RDF></metadata><defs
     id="defs6" /><sodipodi:namedview
     pagecolor="#ffffff"
     bordercolor="#666666"
     borderopacity="1"
     objecttolerance="10"
     gridtolerance="10"
     guidetolerance="10"
     inkscape:pageopacity="0"
     inkscape:pageshadow="2"
     inkscape:window-width="1855"
     inkscape:window-height="1056"
     id="namedview4"
     showgrid="false"
     units="mm"
     fit-margin-top="10"
     fit-margin-left="10"
     fit-margin-right="10"
     fit-margin-bottom="10"
     inkscape:zoom="0.93838384"
     inkscape:cx="390.97995"
     inkscape:cy="343.86495"
     inkscape:window-x="65"
     inkscape:window-y="24"
     inkscape:window-maximized="1"
     inkscape:current-layer="g10" /><g
     id="g10"
     inkscape:groupmode="layer"
     inkscape:label="novena_mb_spacer"
     transform="matrix(1.25,0,0,-1.25,-374.02005,826.18076)"><g
       id="g3090"
       transform="matrix(1,0,0,-1,0,781.84815)"><path
         id="path3088"
         d="m 499.79233,166.84532 c -1.48725,0 -2.6929,-1.20566 -2.6929,-2.69292 0,-1.48724 1.20565,-2.6929 2.6929,-2.6929 1.48727,0 2.69293,1.20566 2.69293,2.6929 0,1.48726 -1.20566,2.69292 -2.69293,2.69292 z"
         style="fill:none;stroke:#222226;stroke-width:1.44000006;stroke-linecap:butt;stroke-linejoin:miter;stroke-miterlimit:2;stroke-opacity:1;stroke-dasharray:none"
         inkscape:connector-curvature="0" /><path
         id="path3086"
         d="m 499.79233,620.38861 c -1.48725,0 -2.6929,-1.20563 -2.6929,-2.69287 0,-1.4873 1.20565,-2.69293 2.6929,-2.69293 1.48727,0 2.69293,1.20563 2.69293,2.69293 0,1.48724 -1.20566,2.69287 -2.69293,2.69287 z"
         style="fill:none;stroke:#222226;stroke-width:1.44000006;stroke-linecap:butt;stroke-linejoin:miter;stroke-miterlimit:2;stroke-opacity:1;stroke-dasharray:none"
         inkscape:connector-curvature="0" /><path
         id="path3084"
         d="m 336.8002,166.84532 c -1.48724,0 -2.6929,-1.20566 -2.6929,-2.69292 0,-1.48724 1.20566,-2.6929 2.6929,-2.6929 1.48728,0 2.69293,1.20566 2.69293,2.6929 0,1.48726 -1.20565,2.69292 -2.69293,2.69292 z"
         style="fill:none;stroke:#222226;stroke-width:1.44000006;stroke-linecap:butt;stroke-linejoin:miter;stroke-miterlimit:2;stroke-opacity:1;stroke-dasharray:none"
         inkscape:connector-curvature="0" /><path
         id="path3082"
         d="m 336.8002,620.38861 c -1.48724,0 -2.6929,-1.20563 -2.6929,-2.69287 0,-1.4873 1.20566,-2.69293 2.6929,-2.69293 1.48728,0 2.69293,1.20563 2.69293,2.69293 0,1.48724 -1.20565,2.69287 -2.69293,2.69287 z"
         style="fill:none;stroke:#222226;stroke-width:1.44000006;stroke-linecap:butt;stroke-linejoin:miter;stroke-miterlimit:2;stroke-opacity:1;stroke-dasharray:none"
         inkscape:connector-curvature="0" /><path
         id="path3080"
         d="m 943.13092,166.84532 c -1.48724,0 -2.69293,-1.20566 -2.69293,-2.69292 0,-1.48724 1.20569,-2.6929 2.69293,-2.6929 1.48724,0 2.69293,1.20566 2.69293,2.6929 0,1.48726 -1.20569,2.69292 -2.69293,2.69292 z"
         style="fill:none;stroke:#222226;stroke-width:1.44000006;stroke-linecap:butt;stroke-linejoin:miter;stroke-miterlimit:2;stroke-opacity:1;stroke-dasharray:none"
         inkscape:connector-curvature="0" /><path
         id="path3078"
         d="m 943.13092,620.38861 c -1.48724,0 -2.69293,-1.20563 -2.69293,-2.69287 0,-1.4873 1.20569,-2.69293 2.69293,-2.69293 1.48724,0 2.69293,1.20563 2.69293,2.69293 0,1.48724 -1.20569,2.69287 -2.69293,2.69287 z"
         style="fill:none;stroke:#222226;stroke-width:1.44000006;stroke-linecap:butt;stroke-linejoin:miter;stroke-miterlimit:2;stroke-opacity:1;stroke-dasharray:none"
         inkscape:connector-curvature="0" /><path
         id="path3076"
         d="m 336.8002,189.66422 c -1.56552,0 -2.83465,-1.26911 -2.83465,-2.83465 0,-1.56553 1.26913,-2.83464 2.83465,-2.83464 1.56555,0 2.83466,1.26911 2.83466,2.83464 0,1.56554 -1.26911,2.83465 -2.83466,2.83465 z"
         style="fill:none;stroke:#222226;stroke-width:1.44000006;stroke-linecap:butt;stroke-linejoin:miter;stroke-miterlimit:2;stroke-opacity:1;stroke-dasharray:none"
         inkscape:connector-curvature="0" /><path
         id="path3074"
         d="m 336.8002,597.85321 c -1.56552,0 -2.83465,-1.2691 -2.83465,-2.83466 0,-1.56555 1.26913,-2.83465 2.83465,-2.83465 1.56555,0 2.83466,1.2691 2.83466,2.83465 0,1.56556 -1.26911,2.83466 -2.83466,2.83466 z"
         style="fill:none;stroke:#222226;stroke-width:1.44000006;stroke-linecap:butt;stroke-linejoin:miter;stroke-miterlimit:2;stroke-opacity:1;stroke-dasharray:none"
         inkscape:connector-curvature="0" /><path
         id="path3072"
         d="m 662.78448,189.66422 c -1.56555,0 -2.83465,-1.26911 -2.83465,-2.83465 0,-1.56553 1.2691,-2.83464 2.83465,-2.83464 1.5655,0 2.8346,1.26911 2.8346,2.83464 0,1.56554 -1.2691,2.83465 -2.8346,2.83465 z"
         style="fill:none;stroke:#222226;stroke-width:1.44000006;stroke-linecap:butt;stroke-linejoin:miter;stroke-miterlimit:2;stroke-opacity:1;stroke-dasharray:none"
         inkscape:connector-curvature="0" /><path
         id="path3070"
         d="m 662.78448,597.85321 c -1.56555,0 -2.83465,-1.2691 -2.83465,-2.83466 0,-1.56555 1.2691,-2.83465 2.83465,-2.83465 1.5655,0 2.8346,1.2691 2.8346,2.83465 0,1.56556 -1.2691,2.83466 -2.8346,2.83466 z"
         style="fill:none;stroke:#222226;stroke-width:1.44000006;stroke-linecap:butt;stroke-linejoin:miter;stroke-miterlimit:2;stroke-opacity:1;stroke-dasharray:none"
         inkscape:connector-curvature="0" /><path
         id="path3068"
         d="m 931.79236,184.19336 c -2.34833,0 -4.25202,-1.90367 -4.25202,-4.25197 0,-2.3483 1.90369,-4.25197 4.25202,-4.25197 2.34826,0 4.25195,1.90367 4.25195,4.25197 0,2.3483 -1.90369,4.25197 -4.25195,4.25197 z"
         style="fill:none;stroke:#222226;stroke-width:1.44000006;stroke-linecap:butt;stroke-linejoin:miter;stroke-miterlimit:2;stroke-opacity:1;stroke-dasharray:none"
         inkscape:connector-curvature="0" /><path
         id="path3066"
         d="m 714.65845,184.19336 c -2.34827,0 -4.25196,-1.90367 -4.25196,-4.25197 0,-2.3483 1.90369,-4.25197 4.25196,-4.25197 2.34832,0 4.25201,1.90367 4.25201,4.25197 0,2.3483 -1.90369,4.25197 -4.25201,4.25197 z"
         style="fill:none;stroke:#222226;stroke-width:1.44000006;stroke-linecap:butt;stroke-linejoin:miter;stroke-miterlimit:2;stroke-opacity:1;stroke-dasharray:none"
         inkscape:connector-curvature="0" /><path
         id="path3064"
         d="m 714.65845,359.14767 c -2.34827,0 -4.25196,-1.90365 -4.25196,-4.25195 0,-2.3483 1.90369,-4.25198 4.25196,-4.25198 2.34832,0 4.25201,1.90368 4.25201,4.25198 0,2.3483 -1.90369,4.25195 -4.25201,4.25195 z"
         style="fill:none;stroke:#222226;stroke-width:1.44000006;stroke-linecap:butt;stroke-linejoin:miter;stroke-miterlimit:2;stroke-opacity:1;stroke-dasharray:none"
         inkscape:connector-curvature="0" /><path
         id="path3062"
         d="m 931.79236,359.14767 c -2.34833,0 -4.25202,-1.90365 -4.25202,-4.25195 0,-2.3483 1.90369,-4.25198 4.25202,-4.25198 2.34826,0 4.25195,1.90368 4.25195,4.25198 0,2.3483 -1.90369,4.25195 -4.25195,4.25195 z"
         style="fill:none;stroke:#222226;stroke-width:1.44000006;stroke-linecap:butt;stroke-linejoin:miter;stroke-miterlimit:2;stroke-opacity:1;stroke-dasharray:none"
         inkscape:connector-curvature="0" /><path
         id="path82"
         d="m 328.29626,595.01855 c 0,-4.69659 3.80735,-8.50396 8.50394,-8.50396 4.6966,0 8.50394,3.80737 8.50394,8.50396 l 0,8.50391 311.81103,0 0,-8.50391 c 0,-3.13104 2.53821,-5.66931 5.66931,-5.66931 l 27.49604,0 0,-391.18109 -27.49604,0 c -6.26214,0 -11.33862,-5.07644 -11.33862,-11.33858 l 0,-8.50393 -306.14172,0 0,8.50393 c 0,4.6966 -3.80734,8.50394 -8.50394,8.50394 -4.69659,0 -8.50394,-3.80734 -8.50394,-8.50394 l 0,-36.85038 629.00788,0 0,481.88977 -629.00788,0 z"
         style="fill:none;stroke:#222226;stroke-width:1.44000006;stroke-linecap:butt;stroke-linejoin:miter;stroke-miterlimit:2;stroke-opacity:1;stroke-dasharray:none"
         inkscape:connector-curvature="0" /></g></g></svg>