<?xml version="1.0" encoding="UTF-8" standalone="no"?>
<!-- Created with Inkscape (http://www.inkscape.org/) -->

<svg
   xmlns:dc="http://purl.org/dc/elements/1.1/"
   xmlns:cc="http://creativecommons.org/ns#"
   xmlns:rdf="http://www.w3.org/1999/02/22-rdf-syntax-ns#"
   xmlns:svg="http://www.w3.org/2000/svg"
   xmlns="http://www.w3.org/2000/svg"
   xmlns:sodipodi="http://sodipodi.sourceforge.net/DTD/sodipodi-0.dtd"
   xmlns:inkscape="http://www.inkscape.org/namespaces/inkscape"
   id="svg3145"
   version="1.1"
   inkscape:version="0.48.3.1 r9886"
   width="372.8974"
   height="320.16302"
   xml:space="preserve"
   sodipodi:docname="novena_hd_spacer.pdf"><metadata
     id="metadata3151"><rdf:RDF><cc:Work
         rdf:about=""><dc:format>image/svg+xml</dc:format><dc:type
           rdf:resource="http://purl.org/dc/dcmitype/StillImage" /><dc:title></dc:title></cc:Work></rdf:RDF></metadata><defs
     id="defs3149" /><sodipodi:namedview
     pagecolor="#ffffff"
     bordercolor="#666666"
     borderopacity="1"
     objecttolerance="10"
     gridtolerance="10"
     guidetolerance="10"
     inkscape:pageopacity="0"
     inkscape:pageshadow="2"
     inkscape:window-width="1855"
     inkscape:window-height="1056"
     id="namedview3147"
     showgrid="false"
     units="mm"
     fit-margin-top="10"
     fit-margin-left="10"
     fit-margin-right="10"
     fit-margin-bottom="10"
     inkscape:zoom="1.7313131"
     inkscape:cx="179.61276"
     inkscape:cy="131.60497"
     inkscape:window-x="65"
     inkscape:window-y="24"
     inkscape:window-maximized="1"
     inkscape:current-layer="g3153" /><g
     id="g3153"
     inkscape:groupmode="layer"
     inkscape:label="novena_hd_spacer"
     transform="matrix(1.25,0,0,-1.25,-315.38724,571.05807)"><g
       id="g3216"><path
         id="path3214"
         d="m 292.90366,420.66068 c -2.42658,0 -4.39368,-1.96714 -4.39368,-4.39371 0,-2.42658 1.9671,-4.39371 4.39368,-4.39371 2.42657,0 4.3937,1.96713 4.3937,4.39371 0,2.42657 -1.96713,4.39371 -4.3937,4.39371 z"
         style="fill:none;stroke:#222226;stroke-width:1.44000006;stroke-linecap:butt;stroke-linejoin:miter;stroke-miterlimit:2;stroke-opacity:1;stroke-dasharray:none"
         inkscape:connector-curvature="0" /><path
         id="path3212"
         d="m 510.03754,420.66068 c -2.42658,0 -4.39371,-1.96714 -4.39371,-4.39371 0,-2.42658 1.96713,-4.39371 4.39371,-4.39371 2.42657,0 4.39367,1.96713 4.39367,4.39371 0,2.42657 -1.9671,4.39371 -4.39367,4.39371 z"
         style="fill:none;stroke:#222226;stroke-width:1.44000006;stroke-linecap:butt;stroke-linejoin:miter;stroke-miterlimit:2;stroke-opacity:1;stroke-dasharray:none"
         inkscape:connector-curvature="0" /><path
         id="path3210"
         d="m 292.90366,245.70633 c -2.42658,0 -4.39368,-1.96712 -4.39368,-4.39369 0,-2.42658 1.9671,-4.39371 4.39368,-4.39371 2.42657,0 4.3937,1.96713 4.3937,4.39371 0,2.42657 -1.96713,4.39369 -4.3937,4.39369 z"
         style="fill:none;stroke:#222226;stroke-width:1.44000006;stroke-linecap:butt;stroke-linejoin:miter;stroke-miterlimit:2;stroke-opacity:1;stroke-dasharray:none"
         inkscape:connector-curvature="0" /><path
         id="path3208"
         d="m 510.03754,245.70633 c -2.42658,0 -4.39371,-1.96712 -4.39371,-4.39369 0,-2.42658 1.96713,-4.39371 4.39371,-4.39371 2.42657,0 4.39367,1.96713 4.39367,4.39371 0,2.42657 -1.9671,4.39369 -4.39367,4.39369 z"
         style="fill:none;stroke:#222226;stroke-width:1.44000006;stroke-linecap:butt;stroke-linejoin:miter;stroke-miterlimit:2;stroke-opacity:1;stroke-dasharray:none"
         inkscape:connector-curvature="0" /><path
         id="path3206"
         d="m 521.56036,241.31264 0,174.95433 c 0,6.36389 -5.15893,11.52282 -11.52282,11.52282 l -217.13388,0 c -6.36387,0 -11.52283,-5.15893 -11.52283,-11.52282 l 0,-174.95433 c 0,-6.36389 5.15896,-11.52285 11.52283,-11.52285 l 217.13388,0 c 6.36389,0 11.52282,5.15896 11.52282,11.52285 z"
         style="fill:none;stroke:#222226;stroke-width:1.44000006;stroke-linecap:butt;stroke-linejoin:miter;stroke-miterlimit:2;stroke-opacity:1;stroke-dasharray:none"
         inkscape:connector-curvature="0" /><path
         id="path3201"
         d="m 484.34146,252.83546 c 7.82767,0 14.17322,6.34557 14.17322,14.17324 l 0,123.56219 c 0,7.82767 -6.34555,14.17325 -14.17322,14.17325 l -165.74173,0 c -7.82767,0 -14.17322,-6.34558 -14.17322,-14.17325 l 0,-123.56219 c 0,-7.82767 6.34555,-14.17324 14.17322,-14.17324 z"
         style="fill:none;stroke:#222226;stroke-width:1.44000006;stroke-linecap:butt;stroke-linejoin:miter;stroke-miterlimit:2;stroke-opacity:1;stroke-dasharray:none"
         inkscape:connector-curvature="0" /></g></g></svg>